<?xml version="1.0" standalone="no"?>
<!DOCTYPE svg PUBLIC "-//W3C//DTD SVG 20010904//EN"
 "http://www.w3.org/TR/2001/REC-SVG-20010904/DTD/svg10.dtd">
<svg version="1.0" xmlns="http://www.w3.org/2000/svg"
 width="58.000000pt" height="155.000000pt" viewBox="0 0 58.000000 155.000000"
 preserveAspectRatio="xMidYMid meet">

<g transform="translate(0.000000,155.000000) scale(0.100000,-0.100000)"
fill="#ffffff" stroke="none">
<path d="M300 1400 c0 -13 7 -20 20 -20 13 0 20 7 20 20 0 13 -7 20 -20 20
-13 0 -20 -7 -20 -20z"/>
<path d="M210 1350 c0 -13 7 -20 20 -20 19 0 20 -7 20 -95 0 -95 0 -95 25 -95
l25 0 0 115 0 115 -45 0 c-38 0 -45 -3 -45 -20z"/>
<path d="M350 1255 c0 -108 1 -115 20 -115 19 0 20 7 20 95 0 95 0 95 25 95
18 0 25 5 25 20 0 17 -7 20 -45 20 l-45 0 0 -115z"/>
<path d="M160 1275 c0 -41 -2 -45 -25 -45 -18 0 -25 -5 -25 -20 0 -15 7 -20
25 -20 24 0 25 -2 25 -70 0 -63 2 -70 20 -70 19 0 20 7 20 135 0 128 -1 135
-20 135 -17 0 -20 -7 -20 -45z"/>
<path d="M440 1230 c0 -83 1 -90 20 -90 19 0 20 7 20 90 0 83 -1 90 -20 90
-19 0 -20 -7 -20 -90z"/>
<path d="M70 1090 c0 -83 1 -90 20 -90 19 0 20 7 20 90 0 83 -1 90 -20 90 -19
0 -20 -7 -20 -90z"/>
<path d="M490 1045 c0 -88 1 -95 20 -95 19 0 20 7 20 95 0 88 -1 95 -20 95
-19 0 -20 -7 -20 -95z"/>
<path d="M117 994 c-4 -4 -7 -16 -7 -26 0 -14 6 -19 23 -16 14 2 22 10 22 23
0 20 -25 32 -38 19z"/>
<path d="M160 930 c0 -13 7 -20 20 -20 13 0 20 7 20 20 0 13 -7 20 -20 20 -13
0 -20 -7 -20 -20z"/>
<path d="M440 930 c0 -13 7 -20 20 -20 13 0 20 7 20 20 0 13 -7 20 -20 20 -13
0 -20 -7 -20 -20z"/>
<path d="M210 880 c0 -13 7 -20 20 -20 13 0 20 7 20 20 0 13 -7 20 -20 20 -13
0 -20 -7 -20 -20z"/>
<path d="M396 887 c6 -17 -21 -41 -36 -32 -6 4 -10 -4 -10 -19 0 -19 5 -26 20
-26 15 0 20 7 20 25 0 20 5 25 25 25 18 0 25 5 25 20 0 15 -7 20 -25 20 -16 0
-23 -4 -19 -13z"/>
<path d="M160 833 c0 -16 6 -23 20 -23 14 0 20 7 20 23 0 16 -6 23 -20 23 -14
0 -20 -7 -20 -23z"/>
<path d="M117 804 c-4 -4 -7 -67 -7 -141 l0 -133 25 0 c20 0 25 -5 25 -25 0
-18 5 -25 20 -25 15 0 20 7 20 25 0 18 -5 25 -20 25 -18 0 -20 8 -22 137 -3
115 -6 138 -18 141 -9 1 -19 0 -23 -4z"/>
<path d="M300 790 c0 -13 7 -20 20 -20 13 0 20 7 20 20 0 13 -7 20 -20 20 -13
0 -20 -7 -20 -20z"/>
<path d="M250 697 c0 -71 3 -77 31 -70 16 5 19 14 19 69 0 62 -1 64 -25 64
-24 0 -25 -2 -25 -63z"/>
<path d="M300 600 c0 -13 7 -20 20 -20 13 0 20 7 20 20 0 13 -7 20 -20 20 -13
0 -20 -7 -20 -20z"/>
<path d="M350 550 c0 -13 7 -20 20 -20 13 0 20 7 20 20 0 13 -7 20 -20 20 -13
0 -20 -7 -20 -20z"/>
<path d="M399 526 c-2 -2 -3 -65 -1 -140 3 -127 4 -136 23 -136 18 0 19 8 19
140 0 129 -1 140 -18 140 -10 0 -21 -2 -23 -4z"/>
<path d="M210 460 c0 -13 7 -20 20 -20 13 0 20 7 20 20 0 13 -7 20 -20 20 -13
0 -20 -7 -20 -20z"/>
<path d="M250 365 c0 -63 1 -65 25 -65 24 0 25 2 25 65 0 63 -1 65 -25 65 -24
0 -25 -2 -25 -65z"/>
<path d="M210 270 c0 -13 7 -20 20 -20 13 0 20 7 20 20 0 13 -7 20 -20 20 -13
0 -20 -7 -20 -20z"/>
<path d="M160 205 c0 -38 3 -45 20 -45 17 0 20 7 20 45 0 38 -3 45 -20 45 -17
0 -20 -7 -20 -45z"/>
<path d="M350 225 c0 -18 5 -25 20 -25 15 0 20 7 20 25 0 18 -5 25 -20 25 -15
0 -20 -7 -20 -25z"/>
<path d="M300 180 c0 -13 7 -20 20 -20 13 0 20 7 20 20 0 13 -7 20 -20 20 -13
0 -20 -7 -20 -20z"/>
<path d="M210 130 c0 -17 7 -20 45 -20 38 0 45 3 45 20 0 17 -7 20 -45 20 -38
0 -45 -3 -45 -20z"/>
</g>
</svg>
