<?xml version="1.0" standalone="no"?>
<!DOCTYPE svg PUBLIC "-//W3C//DTD SVG 20010904//EN"
 "http://www.w3.org/TR/2001/REC-SVG-20010904/DTD/svg10.dtd">
<svg version="1.0" xmlns="http://www.w3.org/2000/svg"
 width="100.000000pt" height="222.000000pt" viewBox="0 0 100.000000 222.000000"
 preserveAspectRatio="xMidYMid meet">
<metadata>
Created by potrace 1.16, written by Peter Selinger 2001-2019
</metadata>
<g transform="translate(0.000000,222.000000) scale(0.100000,-0.100000)"
fill="#000000" stroke="#ffffff">
<path d="M370 2170 c0 -13 -7 -20 -20 -20 -13 0 -20 -7 -20 -20 0 -11 -7 -20
-15 -20 -8 0 -15 -9 -15 -20 0 -13 -7 -20 -20 -20 -16 0 -20 -7 -20 -35 0 -28
-4 -35 -20 -35 -13 0 -20 -7 -20 -20 0 -11 -7 -20 -15 -20 -13 0 -15 -23 -15
-145 0 -138 -1 -145 -20 -145 -19 0 -20 -7 -20 -95 0 -88 -1 -95 -20 -95 -19
0 -20 -7 -20 -165 0 -158 -1 -165 -20 -165 -19 0 -20 -7 -20 -170 0 -163 1
-170 20 -170 17 0 20 7 20 40 0 33 3 40 20 40 16 0 20 7 20 35 0 28 4 35 20
35 18 0 20 7 20 55 0 42 3 55 15 55 11 0 15 11 15 40 l0 40 40 0 c33 0 40 -3
40 -20 0 -11 7 -20 15 -20 12 0 15 -19 15 -110 0 -103 1 -110 20 -110 18 0 20
-7 20 -75 0 -68 2 -75 20 -75 19 0 20 -7 20 -110 0 -91 3 -110 15 -110 12 0
15 -19 15 -110 0 -103 1 -110 20 -110 19 0 20 -7 20 -95 0 -88 1 -95 20 -95
17 0 20 -7 20 -40 0 -33 3 -40 20 -40 19 0 20 7 20 115 0 96 3 115 15 115 12
0 15 15 15 75 0 68 2 75 20 75 19 0 20 7 20 130 0 123 1 130 20 130 18 0 20 7
20 55 0 42 3 55 15 55 13 0 15 21 15 130 0 123 1 130 20 130 16 0 20 7 20 35
0 28 4 35 20 35 16 0 20 -7 20 -35 0 -24 5 -35 15 -35 11 0 15 -11 15 -40 0
-33 3 -40 20 -40 11 0 20 -7 20 -15 0 -8 9 -15 20 -15 17 0 20 -7 20 -40 0
-33 3 -40 20 -40 20 0 20 7 20 335 0 328 0 335 -20 335 -19 0 -20 7 -20 145 0
138 -1 145 -20 145 -17 0 -20 7 -20 40 0 33 -3 40 -20 40 -18 0 -20 7 -20 55
0 42 -3 55 -15 55 -10 0 -15 11 -15 35 0 28 -4 35 -20 35 -13 0 -20 7 -20 20
0 13 -7 20 -20 20 -13 0 -20 7 -20 20 0 11 -7 20 -15 20 -8 0 -15 9 -15 20 0
19 -7 20 -150 20 -143 0 -150 -1 -150 -20z m190 -320 c0 -29 4 -40 15 -40 12
0 15 -19 15 -110 0 -91 -3 -110 -15 -110 -10 0 -15 -11 -15 -35 0 -28 -4 -35
-20 -35 -13 0 -20 -7 -20 -20 0 -17 -7 -20 -40 -20 l-40 0 0 75 c0 60 -3 75
-15 75 -12 0 -15 17 -15 90 0 73 3 90 15 90 8 0 15 9 15 20 0 13 7 20 20 20
13 0 20 7 20 20 0 17 7 20 40 20 l40 0 0 -40z"/>
<path fill="#000000" d="M440 1725 c0 -48 2 -55 20 -55 13 0 20 -7 20 -20 0 -17 7 -20 40 -20
l40 0 0 75 0 75 -60 0 -60 0 0 -55z"/>
</g>
</svg>
